<svg xmlns="http://www.w3.org/2000/svg" width="90" height="90" viewBox="0 0 90 90">
  <g id="Apply_Loan" data-name="Apply Loan" transform="translate(-1095 -1048)">
    <circle id="Ellipse_44" data-name="Ellipse 44" cx="45" cy="45" r="45" transform="translate(1095 1048)" fill="#dee5fb"/>
    <g id="Group_1480" data-name="Group 1480" transform="translate(1111.5 1067)">
      <path id="Path_1910" data-name="Path 1910" d="M65.349,55A9.949,9.949,0,1,0,75.3,64.949,9.929,9.929,0,0,0,65.349,55Zm5.459,8.929L64.839,69.9a1.786,1.786,0,0,1-2.551,0l-2.347-2.347a1.786,1.786,0,0,1,0-2.551h0a1.786,1.786,0,0,1,2.551,0l1.071,1.071,4.694-4.694a1.786,1.786,0,0,1,2.551,0h0A1.786,1.786,0,0,1,70.808,63.929Z" transform="translate(-24.441 -26.449)" fill="#2a3e7e"/>
      <path id="Path_1911" data-name="Path 1911" d="M28.408,38.5A12.52,12.52,0,0,1,40.908,26H43V3.092A2.069,2.069,0,0,0,40.908,1H7.592A2.1,2.1,0,0,0,5.5,3.092V48.908A2.069,2.069,0,0,0,7.592,51H40.908A12.52,12.52,0,0,1,28.408,38.5Zm-9.082-2.4h-4.49a2.092,2.092,0,1,1,0-4.184h4.49a2.092,2.092,0,0,1,0,4.184Zm4.439-11.02H14.837a2.092,2.092,0,1,1,0-4.184h8.878a2.092,2.092,0,0,1,.051,4.184Zm-8.929-11.02a2.092,2.092,0,1,1,0-4.184H27.9a2.092,2.092,0,0,1,0,4.184Z" fill="#2a3e7e"/>
    </g>
  </g>
</svg>
