<svg xmlns="http://www.w3.org/2000/svg" width="75.024" height="44.049" viewBox="0 0 75.024 44.049">
  <g id="cheque" transform="translate(-3.25 -974.589)">
    <path id="Path_2219" data-name="Path 2219" d="M55.588,24a2.384,2.384,0,0,0-1.416.7l-8.046,8.046H7.384a2.384,2.384,0,0,0-.248,0A2.384,2.384,0,0,0,5,35.122v27.02a2.384,2.384,0,0,0,2.384,2.384H74.14a2.384,2.384,0,0,0,2.384-2.384V35.122a2.384,2.384,0,0,0-2.384-2.384H64.6a2.384,2.384,0,0,0-.7-1.689L57.55,24.692a2.384,2.384,0,0,0-1.962-.7Zm.273,5.737,2.98,3-2.583,2.583-2.98-2.98Zm-5.96,5.96,2.98,3L38.974,52.606h-2.98v-3ZM9.768,37.506h31.59l-9.437,9.437a2.384,2.384,0,0,0-.7,1.689V54.99a2.384,2.384,0,0,0,2.384,2.384h6.358a2.384,2.384,0,0,0,1.689-.72L57.7,40.586q.051-.036.1-.074l.248-.248L60.8,37.506H71.755V59.758H9.768Zm4.52,7.947a2.387,2.387,0,1,0,.248,4.768H20.1a2.384,2.384,0,1,0,0-4.768H14.536a2.385,2.385,0,0,0-.248,0Zm0,7.152a2.387,2.387,0,1,0,.248,4.768H26.457a2.384,2.384,0,1,0,0-4.768H14.536a2.385,2.385,0,0,0-.248,0Z" transform="translate(0 952.362)" fill="#223369" stroke="#fff" stroke-width="3.5"/>
  </g>
</svg>
