<svg xmlns="http://www.w3.org/2000/svg" width="90" height="90" viewBox="0 0 90 90">
  <g id="To_Make_Request" data-name="To Make Request" transform="translate(-221 -1048)">
    <circle id="Ellipse_42" data-name="Ellipse 42" cx="45" cy="45" r="45" transform="translate(221 1048)" fill="#dee5fb"/>
    <g id="request" transform="translate(242 1069.509)">
      <path id="Path_1905" data-name="Path 1905" d="M216.292,0H198.6a5.8,5.8,0,0,0-5.8,5.8V32.337a1.377,1.377,0,0,0,2.2,1.1l5.53-4.148h15.759a5.8,5.8,0,0,0,5.8-5.8V5.8a5.8,5.8,0,0,0-5.8-5.8Zm-8.846,22.656a1.376,1.376,0,1,1,1.376-1.376A1.377,1.377,0,0,1,207.446,22.656Zm1.376-6.087v.288a1.376,1.376,0,0,1-2.753,0V15.382a1.377,1.377,0,0,1,1.376-1.376,2.309,2.309,0,1,0-2.309-2.311,1.376,1.376,0,1,1-2.753,0v0a5.062,5.062,0,1,1,6.438,4.874Zm0,0" transform="translate(-175.109 0)" fill="#2a3e7e"/>
      <path id="Path_1906" data-name="Path 1906" d="M37.438,247.495a6.507,6.507,0,1,1-6.507-6.507A6.507,6.507,0,0,1,37.438,247.495Zm0,0" transform="translate(-22.184 -218.874)" fill="#2a3e7e"/>
      <path id="Path_1907" data-name="Path 1907" d="M8.748,382.8A8.748,8.748,0,0,0,0,391.553v1.731a1.376,1.376,0,0,0,1.376,1.376H16.12a1.377,1.377,0,0,0,1.376-1.376v-1.731A8.748,8.748,0,0,0,8.748,382.8Zm0,0" transform="translate(0 -347.678)" fill="#2a3e7e"/>
    </g>
  </g>
</svg>
