<svg xmlns="http://www.w3.org/2000/svg" width="174" height="174" viewBox="0 0 174 174">
  <g id="w1" transform="translate(-183 -3418)">
    <g id="Rectangle_2555" data-name="Rectangle 2555" transform="translate(183 3418)" fill="#e5ffd4" stroke="rgba(162,162,162,0.26)" stroke-width="1">
      <rect width="174" height="174" rx="5" stroke="none"/>
      <rect x="0.5" y="0.5" width="173" height="173" rx="4.5" fill="none"/>
    </g>
    <path id="Path_2345" data-name="Path 2345" d="M100.23,11.9,72.1.22a2.87,2.87,0,0,0-2.2,0L41.77,11.9A2.871,2.871,0,0,0,40,14.55v14.2A48.069,48.069,0,0,0,69.915,73.269a2.871,2.871,0,0,0,2.169,0A48.069,48.069,0,0,0,102,28.747V14.55A2.87,2.87,0,0,0,100.23,11.9ZM96.259,28.747A42.338,42.338,0,0,1,71,67.493,42.339,42.339,0,0,1,45.741,28.747V16.466L71,5.978,96.259,16.466ZM67.827,38.422,80.165,26.085a2.87,2.87,0,1,1,4.059,4.059L69.857,44.511a2.87,2.87,0,0,1-4.059,0l-8.022-8.022a2.87,2.87,0,1,1,4.059-4.059Z" transform="translate(199.5 3476.259)" fill="#223369" stroke="#dcffc5" stroke-width="1.5"/>
  </g>
</svg>
