<svg xmlns="http://www.w3.org/2000/svg" width="174" height="174" viewBox="0 0 174 174">
  <g id="w2" transform="translate(-460 -3418)">
    <g id="Rectangle_2556" data-name="Rectangle 2556" transform="translate(460 3418)" fill="#e5f3fe" stroke="rgba(162,162,162,0.26)" stroke-width="1">
      <rect width="174" height="174" rx="5" stroke="none"/>
      <rect x="0.5" y="0.5" width="173" height="173" rx="4.5" fill="none"/>
    </g>
    <path id="Path_2341" data-name="Path 2341" d="M15.56,77.161a2.7,2.7,0,0,1-2.535-3.626L23.57,44.876H6.756A2.705,2.705,0,0,1,4.53,43.692a2.67,2.67,0,0,1-.286-2.5L19.16,3.224A2.7,2.7,0,0,1,21.667,1.5H44.4a2.708,2.708,0,0,1,2.4,3.945L34.346,29.4H49.4A2.7,2.7,0,0,1,51.5,33.786L17.663,76.145A2.64,2.64,0,0,1,15.56,77.161Zm-4.837-37.7H27.444a2.709,2.709,0,0,1,2.535,3.643L23.856,59.754,43.787,34.8H29.9a2.7,2.7,0,0,1-2.4-3.945L39.95,6.9H23.515Z" transform="translate(518.445 3467.5)" fill="#223369" stroke="#e0ebf4" stroke-width="1.5"/>
  </g>
</svg>
