<svg xmlns="http://www.w3.org/2000/svg" width="174" height="174" viewBox="0 0 174 174">
  <g id="w3" transform="translate(-737 -3418)">
    <g id="Rectangle_2557" data-name="Rectangle 2557" transform="translate(737 3418)" fill="#ffe9e1" stroke="rgba(162,162,162,0.26)" stroke-width="1">
      <rect width="174" height="174" rx="5" stroke="none"/>
      <rect x="0.5" y="0.5" width="173" height="173" rx="4.5" fill="none"/>
    </g>
    <g id="Group_1740" data-name="Group 1740" transform="translate(776.645 3462.959)">
      <path id="Path_2343" data-name="Path 2343" d="M83.306,71.208a12.24,12.24,0,0,0-.888-4.882c-2.663-5.918-8.877-8.433-15.091-10.208-5.622-1.627-5.178-3.847-5.03-5.474l.444-.888c.148-.148.148-.3.3-.3a6.263,6.263,0,0,0,.74-1.036,22.257,22.257,0,0,0,1.332-2.663,3.482,3.482,0,0,0,.3-1.184,1.13,1.13,0,0,1,.3-.74l.74-.74.444-.3,1.036-1.036v-.148a7.106,7.106,0,0,0,1.036-2.959,1.609,1.609,0,0,1,.148-.74,5.033,5.033,0,0,0,.148-1.479V35.256a4.083,4.083,0,0,0-2.071-3.7V31.41c0-.444.148-.888.148-1.184a18.624,18.624,0,0,0,.592-3.995,10.109,10.109,0,0,0-1.479-5.918,9.576,9.576,0,0,0-4.734-4.29c-.444-.148-.888-.444-1.332-.592A21.311,21.311,0,0,0,52.829,14.1H51.2a16.667,16.667,0,0,0-5.622,1.184c-.3.148-.444.3-.592.3a7.241,7.241,0,0,0-1.923,1.775l-.3.592c-.3.3-.3.444-.444.592-.444.3-.74.592-1.036.592a4.92,4.92,0,0,0-2.071,1.775A9.859,9.859,0,0,0,38.182,24.9c0,1.184,0,2.663.148,4.29a5.319,5.319,0,0,0,.3,1.627c0,.148.148.444.148.592a3.7,3.7,0,0,0-2.219,3.7V36.44c0,.444.148,1.036.148,1.627a.889.889,0,0,0,.148.592,9.819,9.819,0,0,0,.888,2.959,8.207,8.207,0,0,0,.888,1.184,3.222,3.222,0,0,0,1.332,1.036,14.111,14.111,0,0,0,2.219,5.03v.148l.3.3.148.3.148.148.444.444.148.148a.544.544,0,0,1,.148.444c.3,1.479.74,3.847-5.03,5.474C33,57.745,25.9,60.851,23.388,66.473a11.815,11.815,0,0,0-.888,4.882v5.622A1.958,1.958,0,0,0,24.423,78.9h0a1.958,1.958,0,0,0,1.923-1.923V71.5a6.741,6.741,0,0,1,.592-3.255c1.923-4.29,7.989-6.658,12.723-7.989,6.066-1.627,8.581-4.882,7.693-9.765a6.266,6.266,0,0,0-.888-2.071l-.3-.444c-.148-.148-.3-.444-.444-.592l-.444-.592a15.2,15.2,0,0,1-1.775-4.143,3.374,3.374,0,0,0-1.332-1.923l-.3-.148c-.148-.148-.444-.3-.592-.444s-.148-.3-.3-.444a2.5,2.5,0,0,1-.444-1.479,1.334,1.334,0,0,0-.148-.74c0-.444-.148-.74-.148-1.184V35.256h.3l.444-.148.3-.148a2.361,2.361,0,0,0,1.184-2.071,13.27,13.27,0,0,0-.3-2.663,3.258,3.258,0,0,1-.148-1.184,36.1,36.1,0,0,1-.148-3.847,5.187,5.187,0,0,1,.444-2.367.517.517,0,0,1,.3-.148A8.388,8.388,0,0,0,44.544,21.5a8.536,8.536,0,0,0,1.184-1.479l.3-.3a5.022,5.022,0,0,1,.888-.888.145.145,0,0,0,.148-.148,9.813,9.813,0,0,1,4.143-.74h1.332a17.2,17.2,0,0,1,6.214,1.184c.3.148.74.3,1.036.444a6.844,6.844,0,0,1,3.107,2.663,7.783,7.783,0,0,1,.888,3.847,13.194,13.194,0,0,1-.444,3.255c-.148.592-.148,1.184-.3,1.775l.3.592a2.212,2.212,0,0,0,.148,1.923A2.518,2.518,0,0,0,65.4,35.109v1.036c0,.3-.148.74-.148,1.184a6.407,6.407,0,0,1-.148.74,4.342,4.342,0,0,1-.444,1.479v.148h0l-.148.148a.145.145,0,0,1-.148.148c-.148.148-.3.148-.444.3a4.5,4.5,0,0,0-1.184,1.184,5.535,5.535,0,0,0-1.036,2.367c0,.148-.148.3-.148.592A6.777,6.777,0,0,1,60.523,46.5a2.6,2.6,0,0,1-.592.74l-.592.74-.3.592A2.982,2.982,0,0,0,58.6,50.2c-.888,4.882,1.627,8.137,7.693,9.765,5.326,1.479,10.652,3.551,12.723,7.989a8.947,8.947,0,0,1,.592,3.255v5.326a1.958,1.958,0,0,0,1.923,1.923h0a1.958,1.958,0,0,0,1.923-1.923C83.306,76.238,83.306,71.5,83.306,71.208Zm-1.923,6.954Z" transform="translate(10.618 3.74)" fill="#223369"/>
      <path id="Path_2344" data-name="Path 2344" d="M37.409,51.128a2.921,2.921,0,0,0,2.071.888,2.968,2.968,0,0,0,2.959-2.959V15.769A9.522,9.522,0,0,0,32.97,6.3H9.89A10,10,0,0,0,4.12,8.223a9.042,9.042,0,0,0-3.7,7.249c-.148,3.4-.148,17.9,1.036,20.713a15.348,15.348,0,0,0,2.219,3.7A16.174,16.174,0,0,0,11.37,45.21,16.623,16.623,0,0,0,16.1,45.8H32.083c.888.888,2.219,2.071,3.255,3.255Zm-4.586-8.877H15.956a12.611,12.611,0,0,1-3.4-.444,12.1,12.1,0,0,1-5.918-3.995,8.344,8.344,0,0,1-1.627-2.959c-.592-1.479-1.036-13.019-.74-19.233a5.411,5.411,0,0,1,2.367-4.438A4.874,4.874,0,0,1,9.89,10H32.97a5.769,5.769,0,0,1,5.77,5.77V47.281l-.148-.148L34.45,42.991l-.148-.148A1.715,1.715,0,0,0,32.822,42.251Z" fill="#223369"/>
      <path id="_" data-name="" d="M6.22,11.865,18.085,0,19.6,1.568,6.22,14.949,0,8.729,1.568,7.161Z" transform="translate(12.899 19.215)" fill="#223369" stroke="#223369" stroke-linecap="round" stroke-linejoin="round" stroke-miterlimit="10" stroke-width="1"/>
    </g>
  </g>
</svg>
