<svg id="Group_1474" data-name="Group 1474" xmlns="http://www.w3.org/2000/svg" width="18.389" height="18.389" viewBox="0 0 18.389 18.389">
  <g id="Group_1472" data-name="Group 1472" transform="translate(0 0)">
    <path id="Path_1878" data-name="Path 1878" d="M17.484,19.291A.484.484,0,0,1,17,18.807V13.484a.484.484,0,1,1,.968,0v5.323A.484.484,0,0,1,17.484,19.291Z" transform="translate(-11.193 -9.129)" fill="#b8c2e2"/>
    <path id="Path_1879" data-name="Path 1879" d="M16.9,29.953h-.968a.485.485,0,1,1,.344-.828.484.484,0,0,0,.682-.682,1.49,1.49,0,0,0-2.052,0,1.452,1.452,0,0,0-.426,1.026,1.476,1.476,0,0,0,.087.484h-.087a.484.484,0,1,0,0,.968H16.9a.484.484,0,0,0,0-.968Z" transform="translate(-9.645 -16.887)" fill="#b8c2e2"/>
    <circle id="Ellipse_40" data-name="Ellipse 40" cx="0.686" cy="0.686" r="0.686" transform="translate(8.279 8.737)" fill="#b8c2e2"/>
    <path id="Path_1880" data-name="Path 1880" d="M29.6,21.349H28.484a.484.484,0,1,1,0-.968H29.6a.315.315,0,0,0,.271-.179.484.484,0,0,0,0-.484l-1.345-1.974a.485.485,0,0,1,.8-.542L30.686,19.2a1.452,1.452,0,0,1,.039,1.476,1.282,1.282,0,0,1-1.123.677Z" transform="translate(-16.87 -11.187)" fill="#b8c2e2"/>
    <path id="Path_1881" data-name="Path 1881" d="M14.195,23.389a9.195,9.195,0,1,1,9.195-9.195A9.195,9.195,0,0,1,14.195,23.389Zm0-17.421a8.227,8.227,0,1,0,8.227,8.227A8.227,8.227,0,0,0,14.195,5.968Z" transform="translate(-5 -5)" fill="#b8c2e2"/>
    <path id="Path_1883" data-name="Path 1883" d="M14.195,23.389a9.195,9.195,0,1,1,9.195-9.195A9.195,9.195,0,0,1,14.195,23.389Z" transform="translate(-5 -5)" fill="#b8c2e2"/>
  </g>
  <path id="Path_1902" data-name="Path 1902" d="M17.484,19.291A.484.484,0,0,1,17,18.807V13.484a.484.484,0,1,1,.968,0v5.323A.484.484,0,0,1,17.484,19.291Z" transform="translate(-11.193 -9.129)" fill="#fff" stroke="#fff" stroke-width="0.3"/>
  <path id="Path_1903" data-name="Path 1903" d="M16.9,29.953h-.968a.485.485,0,1,1,.344-.828.484.484,0,0,0,.682-.682,1.49,1.49,0,0,0-2.052,0,1.452,1.452,0,0,0-.426,1.026,1.476,1.476,0,0,0,.087.484h-.087a.484.484,0,1,0,0,.968H16.9a.484.484,0,0,0,0-.968Z" transform="translate(-9.645 -16.887)" fill="#fff" stroke="#fff" stroke-width="0.3"/>
  <circle id="Ellipse_41" data-name="Ellipse 41" cx="0.686" cy="0.686" r="0.686" transform="translate(8.279 8.737)" fill="#fff" stroke="#fff" stroke-width="0.3"/>
  <path id="Path_1904" data-name="Path 1904" d="M29.6,21.349H28.484a.484.484,0,1,1,0-.968H29.6a.315.315,0,0,0,.271-.179.484.484,0,0,0,0-.484l-1.345-1.974a.485.485,0,0,1,.8-.542L30.686,19.2a1.452,1.452,0,0,1,.039,1.476,1.282,1.282,0,0,1-1.123.677Z" transform="translate(-16.87 -11.187)" fill="#fff" stroke="#fff" stroke-width="0.3"/>
</svg>
