<svg xmlns="http://www.w3.org/2000/svg" width="26.101" height="23.015" viewBox="0 0 26.101 23.015">
  <g id="left-quote" transform="translate(0 -7.328)">
    <path id="Path_1" data-name="Path 1" d="M10.486,11.9a1.255,1.255,0,0,0,.632-1.684L10.086,8.045a1.259,1.259,0,0,0-1.642-.61A14.506,14.506,0,0,0,3.9,10.382,11,11,0,0,0,.842,15.2,26.444,26.444,0,0,0,0,22.615V29.08a1.267,1.267,0,0,0,1.263,1.263H9.538A1.267,1.267,0,0,0,10.8,29.08V20.8a1.267,1.267,0,0,0-1.263-1.263H5.58a8.878,8.878,0,0,1,1.474-5.117A8,8,0,0,1,10.486,11.9Z" fill="#2a3e7e"/>
    <path id="Path_2" data-name="Path 2" d="M81.165,11.977a1.255,1.255,0,0,0,.632-1.684L80.765,8.145a1.259,1.259,0,0,0-1.642-.611A15.252,15.252,0,0,0,74.6,10.462,11.237,11.237,0,0,0,71.521,15.3a26.09,26.09,0,0,0-.821,7.391v6.464a1.267,1.267,0,0,0,1.263,1.263h8.275A1.267,1.267,0,0,0,81.5,29.159V20.884a1.267,1.267,0,0,0-1.263-1.263h-3.98A8.879,8.879,0,0,1,77.733,14.5,8,8,0,0,1,81.165,11.977Z" transform="translate(-55.814 -0.079)" fill="#2a3e7e"/>
  </g>
</svg>
