<svg id="phone-number" xmlns="http://www.w3.org/2000/svg" width="16.679" height="18.389" viewBox="0 0 16.679 18.389">
  <g id="Group_1465" data-name="Group 1465" transform="translate(14.113)">
    <g id="Group_1464" data-name="Group 1464">
      <path id="Path_1898" data-name="Path 1898" d="M418.669,0h-1.711a.214.214,0,0,0-.214.214v5.26a.214.214,0,0,0,.214.214H419.1a.214.214,0,0,0,.214-.214V.641A.641.641,0,0,0,418.669,0Z" transform="translate(-416.745)" fill="#cdd4ea"/>
    </g>
  </g>
  <g id="Group_1467" data-name="Group 1467" transform="translate(14.113 6.971)">
    <g id="Group_1466" data-name="Group 1466">
      <path id="Path_1899" data-name="Path 1899" d="M419.1,194.084h-2.138a.214.214,0,0,0-.214.214v4.02a.214.214,0,0,0,.214.214H419.1a.214.214,0,0,0,.214-.214V194.3A.214.214,0,0,0,419.1,194.084Z" transform="translate(-416.745 -194.084)" fill="#cdd4ea"/>
    </g>
  </g>
  <g id="Group_1469" data-name="Group 1469">
    <g id="Group_1468" data-name="Group 1468" transform="translate(0)">
      <path id="Path_1900" data-name="Path 1900" d="M36.43,0H25.311a1.5,1.5,0,0,0-1.5,1.5v15.4a1.5,1.5,0,0,0,1.5,1.5H36.43a.214.214,0,0,0,.214-.214V.214A.214.214,0,0,0,36.43,0ZM34.586,13.976l-.708.409a3.168,3.168,0,0,1-4.33-1.16L26.831,8.519a3.168,3.168,0,0,1,1.16-4.33L28.7,3.78a1.5,1.5,0,0,1,2.045.548l.7,1.22a1.511,1.511,0,0,1-.7,2.133l1.483,2.569a1.512,1.512,0,0,1,2.2.46l.7,1.221A1.5,1.5,0,0,1,34.586,13.976Z" transform="translate(-23.814 0)" fill="#cdd4ea"/>
    </g>
  </g>
  <g id="Group_1471" data-name="Group 1471" transform="translate(14.113 12.701)">
    <g id="Group_1470" data-name="Group 1470">
      <path id="Path_1901" data-name="Path 1901" d="M419.1,353.637h-2.138a.214.214,0,0,0-.214.214v5.26a.214.214,0,0,0,.214.214h1.711a.641.641,0,0,0,.641-.641v-4.832A.214.214,0,0,0,419.1,353.637Z" transform="translate(-416.745 -353.637)" fill="#cdd4ea"/>
    </g>
  </g>
</svg>
