<svg id="left-quote" xmlns="http://www.w3.org/2000/svg" width="26.101" height="23.015" viewBox="0 0 26.101 23.015">
  <path id="Path_1" data-name="Path 1" d="M.75,11.9a1.255,1.255,0,0,1-.632-1.684L1.15,8.045a1.259,1.259,0,0,1,1.642-.61A14.506,14.506,0,0,1,7.34,10.382,11,11,0,0,1,10.393,15.2a26.444,26.444,0,0,1,.842,7.412V29.08a1.267,1.267,0,0,1-1.263,1.263H1.7A1.267,1.267,0,0,1,.434,29.08V20.8A1.267,1.267,0,0,1,1.7,19.541H5.656a8.878,8.878,0,0,0-1.474-5.117A8,8,0,0,0,.75,11.9Z" transform="translate(14.865 -7.328)" fill="#2a3e7e"/>
  <path id="Path_2" data-name="Path 2" d="M71.45,11.977a1.255,1.255,0,0,1-.632-1.684L71.85,8.145a1.259,1.259,0,0,1,1.642-.611,15.252,15.252,0,0,1,4.527,2.927A11.237,11.237,0,0,1,81.093,15.3a26.09,26.09,0,0,1,.821,7.391v6.464a1.267,1.267,0,0,1-1.263,1.263H72.376a1.267,1.267,0,0,1-1.263-1.263V20.884a1.267,1.267,0,0,1,1.263-1.263h3.98A8.879,8.879,0,0,0,74.882,14.5,8,8,0,0,0,71.45,11.977Z" transform="translate(-70.7 -7.407)" fill="#2a3e7e"/>
</svg>
