<svg xmlns="http://www.w3.org/2000/svg" width="525" height="50" viewBox="0 0 525 50">
  <g id="image-upload" transform="translate(-518 -677)">
    <g id="Group_5032" data-name="Group 5032" transform="translate(-107 88)">
      <g id="Rectangle_2621" data-name="Rectangle 2621" transform="translate(625 589)" fill="rgba(243,243,243,0.59)" stroke="#d1d5de" stroke-width="1">
        <path d="M3,0H177a0,0,0,0,1,0,0V50a0,0,0,0,1,0,0H3a3,3,0,0,1-3-3V3A3,3,0,0,1,3,0Z" stroke="none"/>
        <path d="M3,.5H176a.5.5,0,0,1,.5.5V49a.5.5,0,0,1-.5.5H3A2.5,2.5,0,0,1,.5,47V3A2.5,2.5,0,0,1,3,.5Z" fill="none"/>
      </g>
      <g id="Rectangle_2622" data-name="Rectangle 2622" transform="translate(1150 639) rotate(180)" fill="rgba(243,243,243,0.59)" stroke="#d1d5de" stroke-width="1" stroke-dasharray="3 3">
        <path d="M3,0H349a0,0,0,0,1,0,0V50a0,0,0,0,1,0,0H3a3,3,0,0,1-3-3V3A3,3,0,0,1,3,0Z" stroke="none"/>
        <path d="M3,.5H348a.5.5,0,0,1,.5.5V49a.5.5,0,0,1-.5.5H3A2.5,2.5,0,0,1,.5,47V3A2.5,2.5,0,0,1,3,.5Z" fill="none"/>
      </g>
    </g>
    <text id="Sample_before_Upload" data-name="Sample before Upload" transform="translate(541 706)" fill="#38405f" font-size="14" font-family="Helvetica"><tspan x="0" y="0">Sample before Upload</tspan></text>
    <text id="Drag_here_or_" data-name="Drag here or " transform="translate(781 706)" fill="#454c66" font-size="14" font-family="Helvetica"><tspan x="0" y="0">Drag here or </tspan></text>
    <text id="to_browse_a_file" data-name="to browse a file" transform="translate(895 706)" fill="#454c66" font-size="14" font-family="Helvetica"><tspan x="0" y="0">to browse a file</tspan></text>
    <text id="Click" transform="translate(862 706)" fill="#065ff8" font-size="14" font-family="Helvetica" text-decoration="underline"><tspan x="0" y="0">Click</tspan></text>
    <g id="upload" transform="translate(747.148 671.332)">
      <g id="Group_4819" data-name="Group 4819" transform="translate(0 18.4)">
        <path id="Path_2517" data-name="Path 2517" d="M21.148,24.678a7.532,7.532,0,0,0-13.956-2.5A4.315,4.315,0,0,0,6.4,22.1a4.128,4.128,0,0,0-4.123,4.123,4.507,4.507,0,0,0,.086.856A5.737,5.737,0,0,0,0,31.7a6.133,6.133,0,0,0,1.556,4.059A5.554,5.554,0,0,0,5.406,37.7h4.641a.722.722,0,0,0,0-1.444H5.47A4.553,4.553,0,0,1,1.444,31.7a4.286,4.286,0,0,1,2.123-3.69.728.728,0,0,0,.315-.877,2.62,2.62,0,0,1-.16-.92A2.684,2.684,0,0,1,6.4,23.533a2.633,2.633,0,0,1,.914.16.725.725,0,0,0,.9-.369A6.088,6.088,0,0,1,19.785,25.33a.721.721,0,0,0,.6.642,5.2,5.2,0,0,1-.492,10.277H15.951a.722.722,0,1,0,0,1.444h4.021a6.4,6.4,0,0,0,4.289-2.118,6.655,6.655,0,0,0-3.112-10.9Z" transform="translate(0 -18.4)" fill="#d1d5de"/>
        <path id="Path_2518" data-name="Path 2518" d="M167.1,190.458a.72.72,0,0,0,0-1.021l-3.823-3.823a.73.73,0,0,0-.508-.214.708.708,0,0,0-.508.214l-3.823,3.823a.725.725,0,0,0,.508,1.235.7.7,0,0,0,.508-.214l2.593-2.593v11.919a.722.722,0,1,0,1.444,0V187.865l2.593,2.593A.713.713,0,0,0,167.1,190.458Z" transform="translate(-149.764 -176.47)" fill="#d1d5de"/>
      </g>
    </g>
  </g>
</svg>
