<svg id="left-quote" xmlns="http://www.w3.org/2000/svg" width="26.101" height="23.015" viewBox="0 0 26.101 23.015">
  <path id="Path_1" data-name="Path 1" d="M10.486,25.773a1.255,1.255,0,0,1,.632,1.684l-1.032,2.169a1.259,1.259,0,0,1-1.642.61A14.506,14.506,0,0,1,3.9,27.289,11,11,0,0,1,.842,22.467,26.444,26.444,0,0,1,0,15.056V8.592A1.267,1.267,0,0,1,1.263,7.328H9.538A1.267,1.267,0,0,1,10.8,8.592v8.275A1.267,1.267,0,0,1,9.538,18.13H5.58a8.878,8.878,0,0,0,1.474,5.117A8,8,0,0,0,10.486,25.773Z" transform="translate(0 -7.328)" fill="#2a3e7e"/>
  <path id="Path_2" data-name="Path 2" d="M81.165,25.874a1.255,1.255,0,0,1,.632,1.684l-1.032,2.147a1.259,1.259,0,0,1-1.642.611A15.252,15.252,0,0,1,74.6,27.389a11.237,11.237,0,0,1-3.074-4.843,26.09,26.09,0,0,1-.821-7.391V8.692a1.267,1.267,0,0,1,1.263-1.263h8.275A1.267,1.267,0,0,1,81.5,8.692v8.275a1.267,1.267,0,0,1-1.263,1.263h-3.98a8.879,8.879,0,0,0,1.474,5.117A8,8,0,0,0,81.165,25.874Z" transform="translate(-55.814 -7.429)" fill="#2a3e7e"/>
</svg>
