<svg xmlns="http://www.w3.org/2000/svg" width="18" height="14" viewBox="0 0 18 14">
  <g id="email_icon" data-name="email icon" transform="translate(0.001)">
    <path id="email_icon-2" data-name="email icon" d="M15.965,14H2.033C1.428,14,0,12.946,0,12.218V3.5L7.875,8.309A2.4,2.4,0,0,0,9,8.547a2.4,2.4,0,0,0,1.125-.238L18,3.5v8.718c0,.71-2.014,1.771-2.035,1.782ZM9,7H9L0,2.064A1.749,1.749,0,0,1,.946.465,4.251,4.251,0,0,1,3.02,0H14.941C17.252,0,18,1.39,18,2.064L9,7Z" transform="translate(-0.001)" fill="#b8c2e2" opacity="0.7"/>
  </g>
</svg>
