<svg id="left-quote" xmlns="http://www.w3.org/2000/svg" width="26.101" height="23.015" viewBox="0 0 26.101 23.015">
  <path id="Path_1" data-name="Path 1" d="M.75,25.773a1.255,1.255,0,0,0-.632,1.684L1.15,29.626a1.259,1.259,0,0,0,1.642.61A14.506,14.506,0,0,0,7.34,27.289a11,11,0,0,0,3.053-4.822,26.444,26.444,0,0,0,.842-7.412V8.592A1.267,1.267,0,0,0,9.972,7.328H1.7A1.267,1.267,0,0,0,.434,8.592v8.275A1.267,1.267,0,0,0,1.7,18.13H5.656a8.878,8.878,0,0,1-1.474,5.117A8,8,0,0,1,.75,25.773Z" transform="translate(14.865 -7.328)" fill="#2a3e7e"/>
  <path id="Path_2" data-name="Path 2" d="M71.45,25.874a1.255,1.255,0,0,0-.632,1.684l1.032,2.147a1.259,1.259,0,0,0,1.642.611,15.252,15.252,0,0,0,4.527-2.927,11.237,11.237,0,0,0,3.074-4.843,26.09,26.09,0,0,0,.821-7.391V8.692a1.267,1.267,0,0,0-1.263-1.263H72.376a1.267,1.267,0,0,0-1.263,1.263v8.275a1.267,1.267,0,0,0,1.263,1.263h3.98a8.879,8.879,0,0,1-1.474,5.117A8,8,0,0,1,71.45,25.874Z" transform="translate(-70.7 -7.429)" fill="#2a3e7e"/>
</svg>
