<svg xmlns="http://www.w3.org/2000/svg" width="13.859" height="13.859" viewBox="0 0 13.859 13.859">
  <g id="service-call" opacity="0.5">
    <path id="Path_2520" data-name="Path 2520" d="M13.413,157.734l-1.493-1.493a1.522,1.522,0,0,0-2.152,0l-.274.274a1.063,1.063,0,0,1-.791.311h0c-1.194,0-2.891-1.373-3.492-2.825a1.485,1.485,0,0,1,.116-1.653l.276-.276a1.522,1.522,0,0,0,0-2.153l-1.495-1.491a1.522,1.522,0,0,0-2.151,0l-.747.747c-1.345,1.345-1.577,3.315-.652,5.548A12.96,12.96,0,0,0,4.346,159.6a8.891,8.891,0,0,0,5.319,2.243h0a4.093,4.093,0,0,0,3-1.209l.747-.747a1.522,1.522,0,0,0,0-2.152Z" transform="translate(0 -147.982)" fill="#065ff8"/>
  </g>
</svg>
